<svg version="1.1" viewBox="0.0 0.0 960.0 540.0" fill="none" stroke="none" stroke-linecap="square" stroke-miterlimit="10" xmlns:xlink="http://www.w3.org/1999/xlink" xmlns="http://www.w3.org/2000/svg"><clipPath id="g3b09caa3605_0_17.0"><path d="m0 0l960.0 0l0 540.0l-960.0 0l0 -540.0z" clip-rule="nonzero"/></clipPath><g clip-path="url(#g3b09caa3605_0_17.0)"><path fill="#d9ead3" d="m143.72307 74.00177l0 91.15674l0 0c0 6.0440674 -2.401001 11.840576 -6.6748047 16.11438c-4.2738037 4.2737885 -10.0703125 6.6747894 -16.11438 6.6747894l-113.94314 0c-6.2942505E-4 0 -0.0011396408 -5.0354004E-4 -0.0011396408 -0.0011444092l0.0011396408 -136.73393l0 0c0 -6.2561035E-4 5.097389E-4 -0.0011367798 0.001139164 -0.0011367798l113.942 0.0011367798l0 0c12.586121 0 22.789185 10.203064 22.789185 22.789173z" fill-rule="evenodd"/><path stroke="#38761d" stroke-width="5.464566929133858" stroke-linejoin="round" stroke-linecap="butt" d="m143.72307 74.00177l0 91.15674l0 0c0 6.0440674 -2.401001 11.840576 -6.6748047 16.11438c-4.2738037 4.2737885 -10.0703125 6.6747894 -16.11438 6.6747894l-113.94314 0c-6.2942505E-4 0 -0.0011396408 -5.0354004E-4 -0.0011396408 -0.0011444092l0.0011396408 -136.73393l0 0c0 -6.2561035E-4 5.097389E-4 -0.0011367798 0.001139164 -0.0011367798l113.942 0.0011367798l0 0c12.586121 0 22.789185 10.203064 22.789185 22.789173z" fill-rule="evenodd"/><path fill="#d9ead3" d="m143.72307 374.81894l0 91.15674l0 0c0 6.0440674 -2.401001 11.840576 -6.6748047 16.11438c-4.2738037 4.2738037 -10.0703125 6.6748047 -16.11438 6.6748047l-113.94314 0c-6.2942505E-4 0 -0.0011396408 -5.187988E-4 -0.0011396408 -0.001159668l0.0011396408 -136.73392l0 0c0 -6.4086914E-4 5.097389E-4 -0.001159668 0.001139164 -0.001159668l113.942 0.001159668l0 0c12.586121 0 22.789185 10.203064 22.789185 22.789154z" fill-rule="evenodd"/><path stroke="#38761d" stroke-width="5.464566929133858" stroke-linejoin="round" stroke-linecap="butt" d="m143.72307 374.81894l0 91.15674l0 0c0 6.0440674 -2.401001 11.840576 -6.6748047 16.11438c-4.2738037 4.2738037 -10.0703125 6.6748047 -16.11438 6.6748047l-113.94314 0c-6.2942505E-4 0 -0.0011396408 -5.187988E-4 -0.0011396408 -0.001159668l0.0011396408 -136.73392l0 0c0 -6.4086914E-4 5.097389E-4 -0.001159668 0.001139164 -0.001159668l113.942 0.001159668l0 0c12.586121 0 22.789185 10.203064 22.789185 22.789154z" fill-rule="evenodd"/><path fill="#c9daf8" d="m6.990745 224.42159l0 0c0 -12.586365 10.203266 -22.789627 22.789635 -22.789627l391.9641 0c6.0441895 0 11.84082 2.4010468 16.114716 6.6749268c4.2738953 4.27388 6.6749268 10.070511 6.6749268 16.1147l0 91.15581c0 12.586365 -10.203247 22.789642 -22.789642 22.789642l-391.9641 0c-12.586369 0 -22.789635 -10.203278 -22.789635 -22.789642z" fill-rule="evenodd"/><path stroke="#1155cc" stroke-width="5.464566929133858" stroke-linejoin="round" stroke-linecap="butt" d="m6.990745 224.42159l0 0c0 -12.586365 10.203266 -22.789627 22.789635 -22.789627l391.9641 0c6.0441895 0 11.84082 2.4010468 16.114716 6.6749268c4.2738953 4.27388 6.6749268 10.070511 6.6749268 16.1147l0 91.15581c0 12.586365 -10.203247 22.789642 -22.789642 22.789642l-391.9641 0c-12.586369 0 -22.789635 -10.203278 -22.789635 -22.789642z" fill-rule="evenodd"/><path fill="#d9ead3" d="m515.72546 224.43275l0 0c0 -12.592529 10.208252 -22.800797 22.800842 -22.800797l241.5523 0c6.047119 0 11.846619 2.4022217 16.122559 6.678192c4.276001 4.2759857 6.6782227 10.075455 6.6782227 16.122604l0 91.200485c0 12.592529 -10.208252 22.800781 -22.800781 22.800781l-241.5523 0c-12.59259 0 -22.800842 -10.208252 -22.800842 -22.800781z" fill-rule="evenodd"/><path stroke="#38761d" stroke-width="5.464566929133858" stroke-linejoin="round" stroke-linecap="butt" d="m515.72546 224.43275l0 0c0 -12.592529 10.208252 -22.800797 22.800842 -22.800797l241.5523 0c6.047119 0 11.846619 2.4022217 16.122559 6.678192c4.276001 4.2759857 6.6782227 10.075455 6.6782227 16.122604l0 91.200485c0 12.592529 -10.208252 22.800781 -22.800781 22.800781l-241.5523 0c-12.59259 0 -22.800842 -10.208252 -22.800842 -22.800781z" fill-rule="evenodd"/><path fill="#d9ead3" d="m515.8116 374.85165l0 0c0 -12.592285 10.208069 -22.800354 22.800354 -22.800354l91.19861 0l0 0c6.047058 0 11.846436 2.4021912 16.122314 6.67807c4.275879 4.2759094 6.6780396 10.075256 6.6780396 16.122284l0 91.201385c0 12.592285 -10.208069 22.800354 -22.800354 22.800354l-91.19861 0c-12.592285 0 -22.800354 -10.208069 -22.800354 -22.800354z" fill-rule="evenodd"/><path stroke="#38761d" stroke-width="5.464566929133858" stroke-linejoin="round" stroke-linecap="butt" d="m515.8116 374.85165l0 0c0 -12.592285 10.208069 -22.800354 22.800354 -22.800354l91.19861 0l0 0c6.047058 0 11.846436 2.4021912 16.122314 6.67807c4.275879 4.2759094 6.6780396 10.075256 6.6780396 16.122284l0 91.201385c0 12.592285 -10.208069 22.800354 -22.800354 22.800354l-91.19861 0c-12.592285 0 -22.800354 -10.208069 -22.800354 -22.800354z" fill-rule="evenodd"/><path fill="#d9ead3" d="m307.80185 74.02331l0 0c0 -12.586113 10.203064 -22.789177 22.789154 -22.789177l91.15399 0l0 0c6.044037 0 11.840576 2.4009972 16.11438 6.674797c4.273773 4.2738 6.674774 10.0703125 6.674774 16.11438l0 91.15673c0 12.586105 -10.203064 22.78917 -22.789154 22.78917l-91.15399 0l0 0c-12.58609 0 -22.789154 -10.203064 -22.789154 -22.78917z" fill-rule="evenodd"/><path stroke="#38761d" stroke-width="5.464566929133858" stroke-linejoin="round" stroke-linecap="butt" d="m307.80185 74.02331l0 0c0 -12.586113 10.203064 -22.789177 22.789154 -22.789177l91.15399 0l0 0c6.044037 0 11.840576 2.4009972 16.11438 6.674797c4.273773 4.2738 6.674774 10.0703125 6.674774 16.11438l0 91.15673c0 12.586105 -10.203064 22.78917 -22.789154 22.78917l-91.15399 0l0 0c-12.58609 0 -22.789154 -10.203064 -22.789154 -22.78917z" fill-rule="evenodd"/><path fill="#c9daf8" d="m515.8116 165.14688l0 -91.20048l0 0c0 -6.0471497 2.4022217 -11.846622 6.6782227 -16.122604c4.276001 -4.275978 10.075439 -6.6782 16.12262 -6.6782l414.39606 0c6.713867E-4 0 0.001159668 5.1116943E-4 0.001159668 0.0011405945l-0.001159668 136.80093l0 0c0 6.2561035E-4 -4.8828125E-4 0.0011444092 -0.0010986328 0.0011444092l-414.39496 -0.0011444092l0 0c-12.592529 0 -22.800842 -10.208267 -22.800842 -22.800797z" fill-rule="evenodd"/><path stroke="#1155cc" stroke-width="5.464566929133858" stroke-linejoin="round" stroke-linecap="butt" d="m515.8116 165.14688l0 -91.20048l0 0c0 -6.0471497 2.4022217 -11.846622 6.6782227 -16.122604c4.276001 -4.275978 10.075439 -6.6782 16.12262 -6.6782l414.39606 0c6.713867E-4 0 0.001159668 5.1116943E-4 0.001159668 0.0011405945l-0.001159668 136.80093l0 0c0 6.2561035E-4 -4.8828125E-4 0.0011444092 -0.0010986328 0.0011444092l-414.39496 -0.0011444092l0 0c-12.592529 0 -22.800842 -10.208267 -22.800842 -22.800797z" fill-rule="evenodd"/><path fill="#d9ead3" d="m307.80185 374.81894l0 0c0 -12.58609 10.203064 -22.789154 22.789154 -22.789154l91.15399 0l0 0c6.044037 0 11.840576 2.4009705 16.11438 6.674774c4.273773 4.2738037 6.674774 10.0703125 6.674774 16.11438l0 91.15674c0 12.586121 -10.203064 22.789185 -22.789154 22.789185l-91.15399 0l0 0c-12.58609 0 -22.789154 -10.203064 -22.789154 -22.789185z" fill-rule="evenodd"/><path stroke="#38761d" stroke-width="5.464566929133858" stroke-linejoin="round" stroke-linecap="butt" d="m307.80185 374.81894l0 0c0 -12.58609 10.203064 -22.789154 22.789154 -22.789154l91.15399 0l0 0c6.044037 0 11.840576 2.4009705 16.11438 6.674774c4.273773 4.2738037 6.674774 10.0703125 6.674774 16.11438l0 91.15674c0 12.586121 -10.203064 22.789185 -22.789154 22.789185l-91.15399 0l0 0c-12.58609 0 -22.789154 -10.203064 -22.789154 -22.789185z" fill-rule="evenodd"/><path fill="#000000" d="m436.26562 269.99948l0 0c0 -4.566681 3.7019348 -8.268707 8.268524 -8.268707l0 0c2.1929626 0 4.2960815 0.8711853 5.8467407 2.421875c1.5506592 1.5506592 2.421814 3.653839 2.421814 5.8468323l0 0c0 4.566681 -3.7019653 8.268707 -8.268555 8.268707l0 0c-4.5665894 0 -8.268524 -3.7020264 -8.268524 -8.268707z" fill-rule="evenodd"/><path fill="#000000" d="m507.45694 420.3866l0 0c0 -4.5607605 3.6971436 -8.257996 8.257843 -8.257996l0 0c2.1900635 0 4.2904663 0.87005615 5.8391113 2.4187317c1.548645 1.548645 2.4187012 3.649109 2.4187012 5.839264l0 0c0 4.5607605 -3.6971436 8.257996 -8.2578125 8.257996l0 0c-4.5606995 0 -8.257843 -3.697235 -8.257843 -8.257996z" fill-rule="evenodd"/><path fill="#000000" fill-opacity="0.0" d="m452.8027 269.99948c13.672119 0 20.50821 37.589417 27.344269 75.17883c6.8360596 37.589417 13.67215 75.1788 27.3443 75.1788" fill-rule="evenodd"/><path stroke="#000000" stroke-width="5.464566929133858" stroke-linejoin="round" stroke-linecap="butt" d="m452.8027 269.99948c13.672119 0 20.50821 37.589417 27.344269 75.17883c6.8360596 37.589417 13.67215 75.1788 27.3443 75.1788" fill-rule="evenodd"/><path fill="#000000" d="m507.45694 119.59095l0 0c0 -4.5607605 3.6971436 -8.25798 8.257843 -8.25798l0 0c2.1900635 0 4.2904663 0.87003326 5.8391113 2.4187088c1.548645 1.5486679 2.4187012 3.6491165 2.4187012 5.8392715l0 0c0 4.5607605 -3.6971436 8.257988 -8.2578125 8.257988l0 0c-4.5606995 0 -8.257843 -3.6972275 -8.257843 -8.257988z" fill-rule="evenodd"/><path fill="#000000" d="m436.26562 420.41885l0 0c0 -4.566681 3.7019348 -8.268707 8.268524 -8.268707l0 0c2.1929626 0 4.2960815 0.8711548 5.8467407 2.4218445c1.5506592 1.5506897 2.421814 3.6538696 2.421814 5.846863l0 0c0 4.566681 -3.7019653 8.268707 -8.268555 8.268707l0 0c-4.5665894 0 -8.268524 -3.7020264 -8.268524 -8.268707z" fill-rule="evenodd"/><path fill="#000000" fill-opacity="0.0" d="m452.8027 420.41885c13.672119 0 20.50821 -75.21777 27.344269 -150.43555c6.8360596 -75.21777 13.67215 -150.43555 27.3443 -150.43555" fill-rule="evenodd"/><path stroke="#000000" stroke-width="5.464566929133858" stroke-linejoin="round" stroke-linecap="butt" d="m452.8027 420.41885c13.672119 0 20.50821 -75.21777 27.344269 -150.43555c6.8360596 -75.21777 13.67215 -150.43555 27.3443 -150.43555" fill-rule="evenodd"/></g></svg>